<svg xmlns="http://www.w3.org/2000/svg" enable-background="new 0 0 3045.1 2522.7" viewBox="0 0 3045.1 2522.7"><g opacity=".15"><path fill="#4c0000" d="M1569.2,2200.9c-0.1,65.6,122.7,119,274.3,119.2s274.4-52.8,274.5-118.5s-122.7-119-274.3-119.2    S1569.3,2135.3,1569.2,2200.9z" opacity="0"/><path fill="#4a0101" d="M1576.3,2201c0,63.9,119.6,116,267.2,116.2c147.6,0.2,267.3-51.5,267.4-115.4c0-63.9-119.6-116-267.2-116.2    S1576.3,2137,1576.3,2201z" opacity=".038"/><path fill="#480202" d="M1583.4,2201c0,62.3,116.4,112.9,260.1,113.1c143.7,0.2,260.3-50.1,260.3-112.4    c0-62.3-116.4-112.9-260.1-113.1C1700,2088.4,1583.4,2138.7,1583.4,2201z" opacity=".077"/><path fill="#460303" d="M1590.4,2201c0,60.6,113.3,109.8,253.1,110c139.8,0.2,253.2-48.7,253.3-109.3s-113.3-109.8-253.1-110    C1703.9,2091.5,1590.5,2140.4,1590.4,2201z" opacity=".115"/><path fill="#440404" d="M1597.5,2201c0,58.9,110.1,106.8,246,107c135.9,0.2,246.1-47.4,246.2-106.3s-110.1-106.8-246-107    C1707.8,2094.5,1597.5,2142.1,1597.5,2201z" opacity=".154"/><path fill="#420505" d="M1604.6,2201c0,57.2,106.9,103.7,239,103.9c132,0.2,239.1-46,239.1-103.2c0-57.2-106.9-103.7-239-103.9    C1711.7,2097.6,1604.6,2143.8,1604.6,2201z" opacity=".192"/><path fill="#400606" d="M1611.6,2201c0,55.5,103.8,100.6,231.9,100.8s232-44.7,232-100.1c0-55.5-103.8-100.6-231.9-100.8    C1715.6,2100.7,1611.7,2145.5,1611.6,2201z" opacity=".231"/><path fill="#3e0606" d="M1618.7,2201c0,53.8,100.6,97.6,224.8,97.7c124.2,0.2,224.9-43.3,225-97.1s-100.6-97.6-224.8-97.7    S1618.7,2147.2,1618.7,2201z" opacity=".269"/><path fill="#3c0707" d="M1625.8,2201c0,52.1,97.5,94.5,217.8,94.7c120.3,0.2,217.9-41.9,217.9-94c0-52.1-97.5-94.5-217.8-94.7    C1723.4,2106.8,1625.8,2148.9,1625.8,2201z" opacity=".308"/><path fill="#3a0808" d="M1632.8,2201c0,50.4,94.3,91.4,210.7,91.6s210.8-40.6,210.8-91c0-50.4-94.3-91.4-210.7-91.6    S1632.9,2150.6,1632.8,2201z" opacity=".346"/><path fill="#380909" d="M1639.9,2201c0,48.7,91.1,88.4,203.6,88.5s203.7-39.2,203.8-87.9s-91.1-88.4-203.6-88.5    S1639.9,2152.3,1639.9,2201z" opacity=".385"/><path fill="#360a0a" d="M1647,2201.1c0,47,88,85.3,196.6,85.5s196.7-37.9,196.7-84.9c0-47-88-85.3-196.6-85.5    C1735.1,2116,1647,2154,1647,2201.1z" opacity=".423"/><path fill="#340b0b" d="M1654,2201.1c0,45.4,84.8,82.2,189.5,82.4c104.7,0.2,189.6-36.5,189.6-81.8s-84.8-82.2-189.5-82.4    S1654.1,2155.7,1654,2201.1z" opacity=".462"/><path fill="#330c0c" d="M1661.1,2201.1c0,43.7,81.6,79.2,182.4,79.3c100.8,0.1,182.5-35.1,182.6-78.8c0-43.7-81.6-79.2-182.4-79.3    C1742.9,2122.1,1661.1,2157.4,1661.1,2201.1z" opacity=".5"/><path fill="#310d0d" d="M1668.2,2201.1c0,42,78.5,76.1,175.4,76.2c96.9,0.1,175.5-33.8,175.5-75.7s-78.5-76.1-175.4-76.2    S1668.2,2159.1,1668.2,2201.1z" opacity=".538"/><path fill="#2f0e0e" d="M1675.2,2201.1c0,40.3,75.3,73,168.3,73.2c93,0.1,168.4-32.4,168.4-72.7c0-40.3-75.3-73-168.3-73.2    C1750.7,2128.3,1675.3,2160.8,1675.2,2201.1z" opacity=".577"/><path fill="#2d0f0f" d="M1682.3,2201.1c0,38.6,72.2,70,161.2,70.1s161.3-31,161.3-69.6c0-38.6-72.2-70-161.2-70.1    S1682.3,2162.5,1682.3,2201.1z" opacity=".615"/><path fill="#2b1010" d="M1689.4,2201.1c0,36.9,69,66.9,154.2,67c85.2,0.1,154.2-29.7,154.3-66.6c0-36.9-69-66.9-154.2-67    C1758.5,2134.4,1689.4,2164.2,1689.4,2201.1z" opacity=".654"/><path fill="#291111" d="M1696.4,2201.1c0,35.2,65.8,63.8,147.1,64c81.3,0.1,147.2-28.3,147.2-63.5c0-35.2-65.8-63.8-147.1-64    C1762.4,2137.5,1696.5,2165.9,1696.4,2201.1z" opacity=".692"/><path fill="#271212" d="M1703.5,2201.1c0,33.5,62.7,60.8,140,60.9c77.4,0.1,140.1-27,140.1-60.5s-62.7-60.8-140-60.9    C1766.3,2140.5,1703.5,2167.6,1703.5,2201.1z" opacity=".731"/><path fill="#251212" d="M1710.6,2201.1c0,31.8,59.5,57.7,133,57.8c73.5,0.1,133-25.6,133.1-57.4c0-31.8-59.5-57.7-133-57.8    C1770.2,2143.6,1710.6,2169.3,1710.6,2201.1z" opacity=".769"/><path fill="#231313" d="M1717.6,2201.2c0,30.1,56.3,54.6,125.9,54.7c69.6,0.1,126-24.2,126-54.4c0-30.1-56.3-54.6-125.9-54.7    C1774.1,2146.7,1717.7,2171,1717.6,2201.2z" opacity=".808"/><path fill="#211414" d="M1724.7,2201.2c0,28.4,53.2,51.6,118.8,51.7s118.9-22.9,118.9-51.3c0-28.4-53.2-51.6-118.8-51.7    C1778,2149.7,1724.7,2172.7,1724.7,2201.2z" opacity=".846"/><path fill="#1f1515" d="M1731.8,2201.2c0,26.8,50,48.5,111.8,48.6c61.8,0.1,111.8-21.5,111.9-48.3s-50-48.5-111.8-48.6    C1781.9,2152.8,1731.8,2174.4,1731.8,2201.2z" opacity=".885"/><path fill="#1d1616" d="M1738.8,2201.2c0,25.1,46.9,45.4,104.7,45.5c57.9,0.1,104.8-20.2,104.8-45.2c0-25.1-46.9-45.4-104.7-45.5    C1785.8,2155.9,1738.9,2176.1,1738.8,2201.2z" opacity=".923"/><path fill="#1b1717" d="M1745.9,2201.2c0,23.4,43.7,42.4,97.6,42.5s97.7-18.8,97.7-42.2c0-23.4-43.7-42.4-97.6-42.5    C1789.7,2158.9,1745.9,2177.8,1745.9,2201.2z" opacity=".962"/><path fill="#191818" d="M1753,2201.2c0,21.7,40.5,39.3,90.6,39.4c50,0.1,90.6-17.4,90.6-39.1c0-21.7-40.5-39.3-90.6-39.4    C1793.6,2162,1753,2179.5,1753,2201.2z"/></g><g opacity=".15"><path fill="#4c0000" d="M1319.6,1847c-0.1,65.6,122.7,119,274.3,119.2c151.5,0.2,274.4-52.8,274.5-118.5    c0.1-65.6-122.7-119-274.3-119.2S1319.7,1781.3,1319.6,1847z" opacity="0"/><path fill="#4a0101" d="M1326.7,1847c0,63.9,119.6,116,267.2,116.2c147.6,0.2,267.3-51.5,267.4-115.4c0-63.9-119.6-116-267.2-116.2    S1326.7,1783,1326.7,1847z" opacity=".038"/><path fill="#480202" d="M1333.8,1847c0,62.3,116.4,112.9,260.1,113.1c143.7,0.2,260.3-50.1,260.3-112.4    c0-62.3-116.4-112.9-260.1-113.1S1333.8,1784.7,1333.8,1847z" opacity=".077"/><path fill="#460303" d="M1340.8,1847c0,60.6,113.3,109.8,253.1,110c139.8,0.2,253.2-48.7,253.3-109.3c0-60.6-113.3-109.8-253.1-110    S1340.9,1786.4,1340.8,1847z" opacity=".115"/><path fill="#440404" d="M1347.9,1847c0,58.9,110.1,106.8,246,107c135.9,0.2,246.1-47.4,246.2-106.3c0-58.9-110.1-106.8-246-107    S1347.9,1788.1,1347.9,1847z" opacity=".154"/><path fill="#420505" d="M1355,1847c0,57.2,106.9,103.7,239,103.9c132,0.2,239.1-46,239.1-103.2s-106.9-103.7-239-103.9    C1462.1,1743.6,1355,1789.8,1355,1847z" opacity=".192"/><path fill="#400606" d="M1362,1847c0,55.5,103.8,100.6,231.9,100.8c128.1,0.2,232-44.7,232-100.1c0-55.5-103.8-100.6-231.9-100.8    C1466,1746.7,1362.1,1791.5,1362,1847z" opacity=".231"/><path fill="#3e0606" d="M1369.1,1847c0,53.8,100.6,97.6,224.8,97.7c124.2,0.2,224.9-43.3,225-97.1c0-53.8-100.6-97.6-224.8-97.7    C1469.9,1749.8,1369.1,1793.2,1369.1,1847z" opacity=".269"/><path fill="#3c0707" d="M1376.2,1847.1c0,52.1,97.5,94.5,217.8,94.7c120.3,0.2,217.9-41.9,217.9-94c0-52.1-97.5-94.5-217.8-94.7    C1473.8,1752.8,1376.2,1794.9,1376.2,1847.1z" opacity=".308"/><path fill="#3a0808" d="M1383.2,1847.1c0,50.4,94.3,91.4,210.7,91.6c116.4,0.2,210.8-40.6,210.8-91c0-50.4-94.3-91.4-210.7-91.6    C1477.7,1755.9,1383.3,1796.6,1383.2,1847.1z" opacity=".346"/><path fill="#380909" d="M1390.3,1847.1c0,48.7,91.1,88.4,203.6,88.5c112.5,0.2,203.7-39.2,203.8-87.9c0-48.7-91.1-88.4-203.6-88.5    C1481.6,1759,1390.3,1798.3,1390.3,1847.1z" opacity=".385"/><path fill="#360a0a" d="M1397.4,1847.1c0,47,88,85.3,196.6,85.5c108.6,0.2,196.7-37.9,196.7-84.9c0-47-88-85.3-196.6-85.5    S1397.4,1800,1397.4,1847.1z" opacity=".423"/><path fill="#340b0b" d="M1404.4,1847.1c0,45.4,84.8,82.2,189.5,82.4c104.7,0.2,189.6-36.5,189.6-81.8c0-45.4-84.8-82.2-189.5-82.4    S1404.5,1801.7,1404.4,1847.1z" opacity=".462"/><path fill="#330c0c" d="M1411.5,1847.1c0,43.7,81.6,79.2,182.4,79.3c100.8,0.1,182.5-35.1,182.6-78.8c0-43.7-81.6-79.2-182.4-79.3    C1493.3,1768.2,1411.5,1803.4,1411.5,1847.1z" opacity=".5"/><path fill="#310d0d" d="M1418.6,1847.1c0,42,78.5,76.1,175.4,76.2c96.9,0.1,175.5-33.8,175.5-75.7c0-42-78.5-76.1-175.4-76.2    S1418.6,1805.1,1418.6,1847.1z" opacity=".538"/><path fill="#2f0e0e" d="M1425.6,1847.1c0,40.3,75.3,73,168.3,73.2c93,0.1,168.4-32.4,168.4-72.7c0-40.3-75.3-73-168.3-73.2    C1501.1,1774.3,1425.7,1806.8,1425.6,1847.1z" opacity=".577"/><path fill="#2d0f0f" d="M1432.7,1847.1c0,38.6,72.2,70,161.2,70.1s161.3-31,161.3-69.6c0-38.6-72.2-70-161.2-70.1    C1505,1777.4,1432.7,1808.5,1432.7,1847.1z" opacity=".615"/><path fill="#2b1010" d="M1439.8,1847.1c0,36.9,69,66.9,154.2,67c85.2,0.1,154.2-29.7,154.3-66.6c0-36.9-69-66.9-154.2-67    C1508.9,1780.4,1439.8,1810.3,1439.8,1847.1z" opacity=".654"/><path fill="#291111" d="M1446.8,1847.2c0,35.2,65.8,63.8,147.1,64s147.2-28.3,147.2-63.5c0-35.2-65.8-63.8-147.1-64    C1512.8,1783.5,1446.9,1812,1446.8,1847.2z" opacity=".692"/><path fill="#271212" d="M1453.9,1847.2c0,33.5,62.7,60.8,140,60.9c77.4,0.1,140.1-27,140.1-60.5s-62.7-60.8-140-60.9    C1516.7,1786.6,1453.9,1813.7,1453.9,1847.2z" opacity=".731"/><path fill="#251212" d="M1461,1847.2c0,31.8,59.5,57.7,133,57.8c73.5,0.1,133-25.6,133.1-57.4c0-31.8-59.5-57.7-133-57.8    C1520.6,1789.6,1461,1815.4,1461,1847.2z" opacity=".769"/><path fill="#231313" d="M1468.1,1847.2c0,30.1,56.3,54.6,125.9,54.7c69.6,0.1,126-24.2,126-54.4c0-30.1-56.3-54.6-125.9-54.7    C1524.5,1792.7,1468.1,1817.1,1468.1,1847.2z" opacity=".808"/><path fill="#211414" d="M1475.1,1847.2c0,28.4,53.2,51.6,118.8,51.7c65.7,0.1,118.9-22.9,118.9-51.3c0-28.4-53.2-51.6-118.8-51.7    S1475.1,1818.8,1475.1,1847.2z" opacity=".846"/><path fill="#1f1515" d="M1482.2,1847.2c0,26.8,50,48.5,111.8,48.6c61.8,0.1,111.8-21.5,111.9-48.3c0-26.8-50-48.5-111.8-48.6    C1532.3,1798.8,1482.2,1820.5,1482.2,1847.2z" opacity=".885"/><path fill="#1d1616" d="M1489.3,1847.2c0,25.1,46.9,45.4,104.7,45.5c57.9,0.1,104.8-20.2,104.8-45.2c0-25.1-46.9-45.4-104.7-45.5    C1536.2,1801.9,1489.3,1822.2,1489.3,1847.2z" opacity=".923"/><path fill="#1b1717" d="M1496.3,1847.2c0,23.4,43.7,42.4,97.6,42.5c53.9,0.1,97.7-18.8,97.7-42.2c0-23.4-43.7-42.4-97.6-42.5    S1496.3,1823.9,1496.3,1847.2z" opacity=".962"/><path fill="#191818" d="M1503.4,1847.2c0,21.7,40.5,39.3,90.6,39.4s90.6-17.4,90.6-39.1c0-21.7-40.5-39.3-90.6-39.4    C1544,1808,1503.4,1825.6,1503.4,1847.2z"/></g><linearGradient id="a" x1="-5718.63" x2="-5581.914" y1="2222.111" y2="2222.111" gradientTransform="matrix(-1 0 0 1 -3890.987 0)" gradientUnits="userSpaceOnUse"><stop offset="0" stop-color="#303030"/><stop offset="1" stop-color="#727272"/></linearGradient><path fill="url(#a)" d="M1822.4,2215.7c0,0,8.5,24,3.8,30.9c-4.7,6.9-25.3,23.6-38.6,20.2c-13.3-3.4-40.8-28.5-66.5-41.7    c-25.7-13.2-43.8-43.7-16.7-47.5c27-3.9,62.2,18.4,62.2,18.4L1822.4,2215.7z"/><linearGradient id="b" x1="-5823.233" x2="-5738.985" y1="2156.148" y2="2156.148" gradientTransform="matrix(-1 0 0 1 -3890.987 0)" gradientUnits="userSpaceOnUse"><stop offset="0" stop-color="#303030"/><stop offset="1" stop-color="#727272"/></linearGradient><path fill="url(#b)" d="M1926,2157.8c0,0,10.8,28.1,3.9,33.6s-39,15-49.3,6.4c-10.3-8.6-19.7-41.2-28.3-51.5    c-8.6-10.3-5.1-50.2,18-29.6S1926,2157.8,1926,2157.8z"/><linearGradient id="c" x1="-5830.222" x2="-5723.633" y1="1971.98" y2="1971.98" gradientTransform="matrix(-1 0 0 1 -3890.987 0)" gradientUnits="userSpaceOnUse"><stop offset="0" stop-color="#303030"/><stop offset="1" stop-color="#727272"/></linearGradient><path fill="url(#c)" d="M1931.8,1778.8c0,0,6.6,30.8,7.4,57.5c1.3,43.7-21,69.5-21,69.5l-4.4,99.2c0,0,13.6,30.8,13.4,70.9    c-0.3,40-1.3,63.9,0,69.3c1.3,5.4,4.3,21.6-24.9,20c-29.3-1.5-28.5-16.2-28.5-16.2s2.3-85.5-13.1-124s-28-210.9-28-210.9    S1905.8,1824.7,1931.8,1778.8z"/><linearGradient id="d" x1="-5767.346" x2="-5630.666" y1="2019.929" y2="2019.929" gradientTransform="matrix(-1 0 0 1 -3890.987 0)" gradientUnits="userSpaceOnUse"><stop offset="0" stop-color="#303030"/><stop offset="1" stop-color="#727272"/></linearGradient><path fill="url(#d)" d="M1744.6,1814.8c0,0-7.2,192.2-4.2,215.3c3,23.1,16.8,44.7,16.8,89.3s0,87,0,87s19.2,18.5,41.6,18.5    c22.4,0,26.8-14.6,26.8-14.6s9.5-57,7.9-88.6c-1.5-31.6-12.3-68.5-12.3-68.5l4.4-103.2c0,0,49.3-45.6,50.8-101.2    C1876.4,1848.9,1801.9,1862.2,1744.6,1814.8z"/><linearGradient id="e" x1="-5853.848" x2="-6230.792" y1="1041.325" y2="169.056" gradientTransform="matrix(-1 0 0 1 -4472.164 0)" gradientUnits="userSpaceOnUse"><stop offset="0" stop-color="#303030"/><stop offset="1" stop-color="#727272"/></linearGradient><path fill="url(#e)" d="M1127.7,490.6l490.4-283c32.1-18.5,114.3,16.9,114.3,54l-42,1236.7c0,32.7-17.4,62.9-45.8,79.2     l-489.5,327.9c-22.8,13.1-79.2-32.6-79.2-58.9V580.4C1075.9,543.3,1095.6,509.1,1127.7,490.6z"/><linearGradient id="f" x1="-5855.252" x2="-6232.196" y1="1041.566" y2="169.296" gradientTransform="matrix(-1 0 0 1 -4472.164 0)" gradientUnits="userSpaceOnUse"><stop offset="0" stop-color="#3a3a3a"/><stop offset=".258" stop-color="#8b8b8b"/><stop offset=".39" stop-color="#fff"/><stop offset=".804" stop-color="#505050"/><stop offset="1" stop-color="#727272"/></linearGradient><path fill="url(#f)" d="M1129.1,490.9l490.4-283c32.1-18.5,114.3,16.9,114.3,54l-42,1236.7c0,32.7-17.4,62.9-45.8,79.2     l-489.5,327.9c-22.8,13.1-79.2-32.6-79.2-58.9V580.6C1077.3,543.6,1097,509.4,1129.1,490.9z"/><linearGradient id="g" x1="-6117.899" x2="-5693.135" y1="1617.772" y2="551.583" gradientTransform="matrix(-1 0 0 1 -4472.164 0)" gradientUnits="userSpaceOnUse"><stop offset="0" stop-color="#303030"/><stop offset="1" stop-color="#727272"/></linearGradient><path fill="url(#g)" d="M1172.7,515.6l490.4-283c32.1-18.5,72.3,4.6,72.3,41.7v1248.9c0,32.7-17.4,62.9-45.8,79.2l-517.5,298.6     c-22.8,13.1-51.2-3.3-51.2-29.6V605.3C1120.9,568.3,1140.6,534.1,1172.7,515.6z"/><linearGradient id="h" x1="-6110.109" x2="-5690.445" y1="1604.32" y2="550.933" gradientTransform="matrix(-1 0 0 1 -4472.164 0)" gradientUnits="userSpaceOnUse"><stop offset="0" stop-color="#303030"/><stop offset="1" stop-color="#fff"/></linearGradient><path fill="url(#h)" d="M1172.7,515.6l490.4-283c19.8-11.4,42.6-7,57.2,6.8c-14.6-11.4-35.5-14.3-53.8-3.8l-490.4,283     c-32.1,18.5-51.8,52.7-51.8,89.7v1266.2c0,9.8,4,18.3,10.1,24.3c-8.1-6.1-13.6-15.7-13.6-27.3V605.3     C1120.9,568.3,1140.6,534.1,1172.7,515.6z"/><linearGradient id="i" x1="-5872.633" x2="-5911.939" y1="273.027" y2="1409.612" gradientTransform="matrix(-1 0 0 1 -4472.164 0)" gradientUnits="userSpaceOnUse"><stop offset="0" stop-color="#82fb7c"/><stop offset="1" stop-color="#0ba2b3"/></linearGradient><path fill="url(#i)" d="M1186.6,539.7l143.3-82.7c4.9-2.8,11,0.7,11,6.4v12.5c0,10,10.8,16.2,19.4,11.2l109.1-63    c7.8-4.5,12.6-12.8,12.6-21.9v-22.9c0-6.3,3.3-12.1,8.8-15.2L1677,256.7c3.2-1.9,6.6-2.8,10.1-2.8c9.8,0,20.4,7.8,20.4,20.4    v1248.9c0,22.7-12.1,43.8-31.8,55.1L1158.2,1877c-1,0.6-2.1,0.9-3.1,0.9c-1.6,0-3.3-0.7-4.5-1.9c-1.2-1.2-1.8-2.7-1.8-4.5V605.3    C1148.7,578.2,1163.2,553.2,1186.6,539.7z"/><path fill="#424242" d="M1375.1,458.3l81.6-47.1c3.1-1.8,5.6-5.7,5.6-8.8l0,0c0-3.1-2.5-4.1-5.6-2.3l-81.6,47.1    c-3.1,1.8-5.6,5.7-5.6,8.8l0,0C1369.6,459,1372.1,460.1,1375.1,458.3z"/><linearGradient id="j" x1="1570.577" x2="1370.282" y1="271.571" y2="797.599" gradientTransform="matrix(1 .0304 0 1 0 71.96)" gradientUnits="userSpaceOnUse"><stop offset="0" stop-color="#efefef"/><stop offset="1" stop-color="#bab9b9"/></linearGradient><path fill="url(#j)" d="M1659.7,407l-475,284.9c-13.5,7.4-21.9,21.6-21.9,37.3l0,369.8c0,12.7,26.6,33,37.6,27l479.4-306.3    c8.4-4.6,13.6-13.5,13.6-23.2l14.5-368.9C1707.8,410.3,1674.6,398.8,1659.7,407z"/><linearGradient id="k" x1="1052.52" x2="1235.506" y1="586.976" y2="721.995" gradientTransform="matrix(1 .0304 0 1 301.505 81.12)" gradientUnits="userSpaceOnUse"><stop offset="0" stop-color="#f7f7f7"/><stop offset="1" stop-color="#fbfbfb"/></linearGradient><path fill="url(#k)" d="M1679,417.1l-475,284.9c-13.5,7.4-21.9,21.6-21.9,37.3V1109c0,12.7,13.7,21,24.7,15L1699,829.7    c8.4-4.6,13.6-13.5,13.6-23.2l0-369.1C1712.6,420.2,1693.9,408.9,1679,417.1z"/><linearGradient id="l" x1="1222.949" x2="1476.958" y1="834.757" y2="834.757" gradientUnits="userSpaceOnUse"><stop offset="0" stop-color="#82fb7c"/><stop offset="1" stop-color="#0ba2b3"/></linearGradient><path fill="url(#l)" d="M1263,1014.7l192.6-110.6c13.2-7.5,21.3-21.6,21.3-36.8V682.4c0-23.9-25.8-38.8-46.5-27l-185.7,106.7    c-13.5,7.7-21.8,22-21.8,37.6v191.8C1222.9,1012,1245.2,1024.9,1263,1014.7z"/><linearGradient id="m" x1="1376.948" x2="1302.74" y1="893.423" y2="696.711" gradientUnits="userSpaceOnUse"><stop offset="0" stop-color="#82fb7c"/><stop offset="1" stop-color="#0ba2b3"/></linearGradient><path fill="url(#m)" d="M1270.2,1019l192.6-110.6c13.2-7.5,21.3-21.6,21.3-36.8V686.6c0-23.9-25.8-38.8-46.5-27l-185.7,106.7    c-13.5,7.7-21.8,22-21.8,37.6v191.8C1230.1,1016.3,1252.3,1029.2,1270.2,1019z"/><path fill="#fff" d="M1474.5,686.7v184.9c0,11.8-6.3,22.7-16.5,28.5l-192.7,110.6c-2.7,1.5-5.5,2.3-8.5,2.3    c-8.3,0-17.3-6.6-17.3-17.3V803.9c0-12.1,6.5-23.2,17-29.2L1442.3,668c3.3-1.9,6.9-2.9,10.6-2.9    C1463.3,665.1,1474.5,673.3,1474.5,686.7z"/><linearGradient id="n" x1="1239.646" x2="1474.538" y1="881.629" y2="881.629" gradientUnits="userSpaceOnUse"><stop offset="0" stop-color="#82fb7c"/><stop offset="1" stop-color="#0ba2b3"/></linearGradient><path fill="url(#n)" d="M1474.5,797.1v74.5c0,11.8-6.3,22.7-16.5,28.5l-192.7,110.6c-2.7,1.5-5.5,2.3-8.5,2.3    c-8.3,0-17.3-6.6-17.3-17.3v-54.3l69.3-99.7l59,45.4l46.8-137L1474.5,797.1z"/><linearGradient id="o" x1="1278.453" x2="1320.355" y1="800.094" y2="800.094" gradientUnits="userSpaceOnUse"><stop offset="0" stop-color="#82fb7c"/><stop offset="1" stop-color="#0ba2b3"/></linearGradient><path fill="url(#o)" d="M1320.4,787.1c0,11.6-9.4,26.8-21,33.9c-11.6,7.2-21,3.6-21-8c0-11.6,9.4-26.8,21-33.9    C1311,772,1320.4,775.5,1320.4,787.1z"/><path fill="#57db90" d="M1600.8,568.9l-96.2,57.8c-1.5,0.9-2.7,0.4-2.7-1.1l0,0c0-1.5,1.2-3.5,2.7-4.4l96.2-57.8    c1.5-0.9,2.7-0.4,2.7,1.1l0,0C1603.5,566,1602.3,568,1600.8,568.9z"/><path fill="#e2e2e2" d="M1683.4,543.4l-178.8,107.4c-1.5,0.9-2.7,0.4-2.7-1.1l0,0c0-1.5,1.2-3.5,2.7-4.4l178.8-107.4    c1.5-0.9,2.7-0.4,2.7,1.1l0,0C1686.1,540.5,1684.9,542.5,1683.4,543.4z"/><path fill="#e2e2e2" d="M1683.4,558.7l-178.8,107.4c-1.5,0.9-2.7,0.4-2.7-1.1l0,0c0-1.5,1.2-3.5,2.7-4.4l178.8-107.4    c1.5-0.9,2.7-0.4,2.7,1.1l0,0C1686.1,555.8,1684.9,557.8,1683.4,558.7z"/><path fill="#e2e2e2" d="M1683.4,574l-178.8,107.4c-1.5,0.9-2.7,0.4-2.7-1.1l0,0c0-1.5,1.2-3.5,2.7-4.4l178.8-107.4    c1.5-0.9,2.7-0.4,2.7,1.1l0,0C1686.1,571.1,1684.9,573.1,1683.4,574z"/><path fill="#e2e2e2" d="M1642,614.2l-137.4,82.5c-1.5,0.9-2.7,0.4-2.7-1.1l0,0c0-1.5,1.2-3.5,2.7-4.4l137.4-82.5    c1.5-0.9,2.7-0.4,2.7,1.1l0,0C1644.7,611.3,1643.5,613.3,1642,614.2z"/><path fill="#e2e2e2" d="M1683.4,625.6L1504.6,733c-1.5,0.9-2.7,0.4-2.7-1.1l0,0c0-1.5,1.2-3.5,2.7-4.4l178.8-107.4    c1.5-0.9,2.7-0.4,2.7,1.1l0,0C1686.1,622.7,1684.9,624.7,1683.4,625.6z"/><path fill="#e2e2e2" d="M1683.4,640.9l-178.8,107.4c-1.5,0.9-2.7,0.4-2.7-1.1l0,0c0-1.5,1.2-3.5,2.7-4.4l178.8-107.4    c1.5-0.9,2.7-0.4,2.7,1.1l0,0C1686.1,638,1684.9,640,1683.4,640.9z"/><path fill="#e2e2e2" d="M1642,681.1l-137.4,82.5c-1.5,0.9-2.7,0.4-2.7-1.1l0,0c0-1.5,1.2-3.5,2.7-4.4l137.4-82.5    c1.5-0.9,2.7-0.4,2.7,1.1l0,0C1644.7,678.2,1643.5,680.2,1642,681.1z"/><linearGradient id="p" x1="1518.789" x2="1647.512" y1="3098.229" y2="3098.229" gradientTransform="matrix(1 -.6005 0 1 0 -1341.036)" gradientUnits="userSpaceOnUse"><stop offset="0" stop-color="#b92222"/><stop offset=".247" stop-color="#dd2f2f"/><stop offset=".855" stop-color="#ff6757"/></linearGradient><path fill="url(#p)" d="M1628.5,798.2l-90.8,54.5c-10.4,6.3-19,2.9-19-7.6l0,0c0-10.4,8.5-24.1,19-30.4l90.8-54.5   c10.4-6.3,19-2.9,19,7.6l0,0C1647.5,778.3,1639,792,1628.5,798.2z"/><linearGradient id="q" x1="1833.751" x2="1536.044" y1="693.476" y2="1475.332" gradientTransform="matrix(1 .0304 0 1 0 71.96)" gradientUnits="userSpaceOnUse"><stop offset="0" stop-color="#efefef"/><stop offset="1" stop-color="#bab9b9"/></linearGradient><path fill="url(#q)" d="M1854,792.9l-475,284.9c-13.5,7.4-21.9,21.6-21.9,37.3l0,819.1c0,12.7,26.6,33,37.6,27l479.4-360.5     c8.4-4.6,13.6,40.7,13.6,31l14.5-818.2C1902.1,796.2,1869,784.7,1854,792.9z"/><linearGradient id="r" x1="1194.488" x2="1481.069" y1="1152.941" y2="1364.399" gradientTransform="matrix(1 .0304 0 1 301.505 81.12)" gradientUnits="userSpaceOnUse"><stop offset="0" stop-color="#f7f7f7"/><stop offset="1" stop-color="#fbfbfb"/></linearGradient><path fill="url(#r)" d="M1873.3,803l-475,284.9c-13.5,7.4-21.9,21.6-21.9,37.3l0,819.1c0,12.7,13.7,21,24.7,15l492.2-294.3     c8.4-4.6,13.6-13.5,13.6-23.2V823.4C1906.9,806.1,1888.3,794.8,1873.3,803z"/><path fill="#57db90" d="M1716.8,995.2l-116,69.7c-1.8,1.1-3.3,0.5-3.3-1.3l0,0c0-1.8,1.5-4.2,3.3-5.3l116-69.7     c1.8-1.1,3.3-0.5,3.3,1.3l0,0C1720.1,991.8,1718.6,994.1,1716.8,995.2z"/><path fill="#e2e2e2" d="M1816.4,964.5L1473,1172.3c-1.8,1.1-3.3,0.5-3.3-1.3l0,0c0-1.8,1.5-4.2,3.3-5.3l343.5-207.8     c1.8-1.1,3.3-0.5,3.3,1.3v0C1819.7,961,1818.3,963.4,1816.4,964.5z"/><path fill="#e2e2e2" d="M1816.4,983L1473,1190.8c-1.8,1.1-3.3,0.5-3.3-1.3l0,0c0-1.8,1.5-4.2,3.3-5.3l343.5-207.8     c1.8-1.1,3.3-0.5,3.3,1.3l0,0C1819.7,979.5,1818.3,981.9,1816.4,983z"/><path fill="#e2e2e2" d="M1816.4,1001.4L1473,1209.3c-1.8,1.1-3.3,0.5-3.3-1.3l0,0c0-1.8,1.5-4.2,3.3-5.3l343.5-207.8     c1.8-1.1,3.3-0.5,3.3,1.3l0,0C1819.7,998,1818.3,1000.4,1816.4,1001.4z"/><path fill="#e2e2e2" d="M1766.5,1049.9L1473,1227.7c-1.8,1.1-3.3,0.5-3.3-1.3l0,0c0-1.8,1.5-4.2,3.3-5.3l293.5-177.8     c1.8-1.1,3.3-0.5,3.3,1.3l0,0C1769.8,1046.5,1768.3,1048.9,1766.5,1049.9z"/><path fill="#57db90" d="M1643.1,1176.4L1473,1278.5c-1.8,1.1-3.3,0.5-3.3-1.3l0,0c0-1.8,1.5-4.2,3.3-5.3l170.1-102.1     c1.8-1.1,3.3-0.5,3.3,1.3l0,0C1646.3,1172.9,1644.9,1175.3,1643.1,1176.4z"/><path fill="#e2e2e2" d="M1676.9,1215.1l-204,122.4c-1.8,1.1-3.3,0.5-3.3-1.3v0c0-1.8,1.5-4.2,3.3-5.3l204-122.4     c1.8-1.1,3.3-0.5,3.3,1.3l0,0C1680.2,1211.6,1678.7,1214,1676.9,1215.1z"/><path fill="#e2e2e2" d="M1766.5,1142.7L1473,1320.5c-1.8,1.1-3.3,0.5-3.3-1.3l0,0c0-1.8,1.5-4.2,3.3-5.3l293.5-177.8     c1.8-1.1,3.3-0.5,3.3,1.3l0,0C1769.8,1139.2,1768.3,1141.6,1766.5,1142.7z"/><polygon fill="#fff" stroke="#b3b3b3" stroke-miterlimit="10" stroke-width="2.228" points="1812.1 1203.3 1469.7 1403.1 1469.7 1363.2 1812.1 1163.5"/><path fill="#e2e2e2" d="M1676.9,1324.7l-204,122.4c-1.8,1.1-3.3,0.5-3.3-1.3l0,0c0-1.8,1.5-4.2,3.3-5.3l204-122.4     c1.8-1.1,3.3-0.5,3.3,1.3l0,0C1680.2,1321.2,1678.7,1323.6,1676.9,1324.7z"/><polygon fill="#fff" stroke="#b3b3b3" stroke-miterlimit="10" stroke-width="2.228" points="1812.1 1312.9 1469.7 1512.6 1469.7 1472.8 1812.1 1273"/><path fill="#e2e2e2" d="M1676.9,1434.2l-204,122.4c-1.8,1.1-3.3,0.5-3.3-1.3l0,0c0-1.8,1.5-4.2,3.3-5.3l204-122.4     c1.8-1.1,3.3-0.5,3.3,1.3l0,0C1680.2,1430.7,1678.7,1433.1,1676.9,1434.2z"/><polygon fill="#fff" stroke="#b3b3b3" stroke-miterlimit="10" stroke-width="2.228" points="1812.1 1422.4 1469.7 1622.2 1469.7 1582.3 1812.1 1382.6"/><path fill="#e2e2e2" d="M1676.9,1543.8l-204,122.4c-1.8,1.1-3.3,0.5-3.3-1.3l0,0c0-1.8,1.5-4.2,3.3-5.3l204-122.4     c1.8-1.1,3.3-0.5,3.3,1.3l0,0C1680.2,1540.3,1678.7,1542.7,1676.9,1543.8z"/><polygon fill="#fff" stroke="#b3b3b3" stroke-miterlimit="10" stroke-width="2.228" points="1812.1 1532 1469.7 1731.8 1469.7 1691.9 1812.1 1492.1"/><linearGradient id="s" x1="1556.92" x2="1760.591" y1="4057.287" y2="4057.287" gradientTransform="matrix(1 -.6005 0 1 0 -1341.036)" gradientUnits="userSpaceOnUse"><stop offset="0" stop-color="#b92222"/><stop offset=".247" stop-color="#dd2f2f"/><stop offset=".855" stop-color="#ff6757"/></linearGradient><path fill="url(#s)" d="M1730.6,1707.1l-143.6,86.3c-16.5,9.9-30,4.5-30-12l0,0c0-16.5,13.5-38.1,30-48l143.6-86.3    c16.5-9.9,30-4.5,30,12l0,0C1760.6,1675.5,1747.1,1697.1,1730.6,1707.1z"/><g><linearGradient id="t" x1="927.156" x2="1181.165" y1="748.094" y2="748.094" gradientUnits="userSpaceOnUse"><stop offset="0" stop-color="#b92222"/><stop offset=".247" stop-color="#dd2f2f"/><stop offset=".855" stop-color="#ff6757"/></linearGradient><path fill="url(#t)" d="M967.2,928l192.6-110.6c13.2-7.5,21.3-21.6,21.3-36.8V595.7c0-23.9-25.8-38.8-46.5-27L948.9,675.4     c-13.5,7.7-21.8,22-21.8,37.6v191.8C927.2,925.4,949.4,938.3,967.2,928z"/><linearGradient id="u" x1="1081.155" x2="1006.946" y1="806.76" y2="610.048" gradientUnits="userSpaceOnUse"><stop offset="0" stop-color="#b92222"/><stop offset=".247" stop-color="#dd2f2f"/><stop offset=".855" stop-color="#ff6757"/></linearGradient><path fill="url(#u)" d="M974.4,932.3L1167,821.7c13.2-7.5,21.3-21.6,21.3-36.8V600c0-23.9-25.8-38.8-46.5-27L956.1,679.7     c-13.5,7.7-21.8,22-21.8,37.6v191.8C934.3,929.7,956.5,942.5,974.4,932.3z"/><polygon fill="#fffffb" points="1036.1 715.4 1036.1 819.5 1104.9 733.8"/></g><g><linearGradient id="v" x1="1852.294" x2="2106.303" y1="973.686" y2="973.686" gradientUnits="userSpaceOnUse"><stop offset="0" stop-color="#82fb7c"/><stop offset="1" stop-color="#0ba2b3"/></linearGradient><path fill="url(#v)" d="M1892.4,1153.6L2085,1043c13.2-7.5,21.3-21.6,21.3-36.8V821.3c0-23.9-25.8-38.8-46.5-27L1874.1,901     c-13.5,7.7-21.8,22-21.8,37.6v191.8C1852.3,1151,1874.5,1163.8,1892.4,1153.6z"/><linearGradient id="w" x1="2006.294" x2="1932.085" y1="1032.351" y2="835.64" gradientUnits="userSpaceOnUse"><stop offset="0" stop-color="#82fb7c"/><stop offset="1" stop-color="#0ba2b3"/></linearGradient><path fill="url(#w)" d="M1899.5,1157.9l192.6-110.6c13.2-7.5,21.3-21.6,21.3-36.8V825.6c0-23.9-25.8-38.8-46.5-27l-185.7,106.7     c-13.5,7.7-21.8,22-21.8,37.6v191.8C1859.4,1155.2,1881.7,1168.1,1899.5,1157.9z"/><path fill="#fffffb" d="M2047.9,1037.2l-117.3,67.2c-10.8,6.2-19.7,2.4-19.7-8.4v0c0-10.8,8.9-24.8,19.7-31l117.3-67.2     c10.8-6.2,19.7-2.4,19.7,8.4l0,0C2067.7,1017,2058.8,1031,2047.9,1037.2z"/><path fill="#e2e2e2" d="M2037,1037.8l-42.8,24.5c-7.7,4.4-14.1,1.7-14.1-6l0,0c0-7.7,6.3-17.7,14.1-22.1l42.8-24.5     c7.7-4.4,14.1-1.7,14.1,6l0,0C2051.1,1023.4,2044.7,1033.4,2037,1037.8z"/><path fill="#fffffb" d="M2047.9,971.7l-117.3,67.2c-10.8,6.2-19.7,2.4-19.7-8.4l0,0c0-10.8,8.9-24.8,19.7-31l117.3-67.2     c10.8-6.2,19.7-2.4,19.7,8.4v0C2067.7,951.5,2058.8,965.5,2047.9,971.7z"/><path fill="#e2e2e2" d="M1980.2,1003.6l-42.8,24.5c-7.7,4.4-14.1,1.7-14.1-6l0,0c0-7.7,6.3-17.7,14.1-22.1l42.8-24.5     c7.7-4.4,14.1-1.7,14.1,6l0,0C1994.3,989.2,1987.9,999.1,1980.2,1003.6z"/><g><path fill="#fffffb" d="M2047.9,903.1l-117.3,67.2c-10.8,6.2-19.7,2.4-19.7-8.4v0c0-10.8,8.9-24.8,19.7-31l117.3-67.2     c10.8-6.2,19.7-2.4,19.7,8.4l0,0C2067.7,883,2058.8,896.9,2047.9,903.1z"/><path fill="#e2e2e2" d="M1980.2,935l-42.8,24.5c-7.7,4.4-14.1,1.7-14.1-6l0,0c0-7.7,6.3-17.7,14.1-22.1l42.8-24.5     c7.7-4.4,14.1-1.7,14.1,6l0,0C1994.3,920.6,1987.9,930.6,1980.2,935z"/></g></g><g><linearGradient id="x" x1="1105.387" x2="1193.093" y1="1600.752" y2="1254.712" gradientUnits="userSpaceOnUse"><stop offset="0" stop-color="#ffe94d"/><stop offset="1" stop-color="#ff9d00"/></linearGradient><path fill="url(#x)" d="M1030.4,1906.9l192.6-110.6c13.2-7.5,21.3-21.6,21.3-36.8v-528.7c0-23.9-25.8-38.8-46.5-27l-185.7,106.7      c-13.5,7.7-21.8,22-21.8,37.6v535.6C990.3,1904.2,1012.5,1917.1,1030.4,1906.9z"/><linearGradient id="y" x1="1023.067" x2="1270.098" y1="1304.079" y2="1930.117" gradientUnits="userSpaceOnUse"><stop offset="0" stop-color="#ffe94d"/><stop offset="1" stop-color="#ff9d00"/></linearGradient><path fill="url(#y)" d="M1037.5,1911.1l192.6-110.6c13.2-7.5,21.3-21.6,21.3-36.8V1235c0-23.9-25.8-38.8-46.5-27l-185.7,106.7      c-13.5,7.7-21.8,22-21.8,37.6v535.6C997.5,1908.5,1019.7,1921.3,1037.5,1911.1z"/><path fill="#57db90" d="M1144.4,1565.3l-91.3,54.1c-1.9,1.1-3.4,0.5-3.4-1.4l0,0c0-1.9,1.5-4.3,3.4-5.4l91.3-54.1      c1.9-1.1,3.4-0.5,3.4,1.4v0C1147.8,1561.7,1146.2,1564.2,1144.4,1565.3z"/><path fill="#feffff" d="M1204.5,1548.8l-151.5,89.7c-1.9,1.1-3.4,0.5-3.4-1.4l0,0c0-1.9,1.5-4.3,3.4-5.4l151.5-89.7      c1.9-1.1,3.4-0.5,3.4,1.4l0,0C1207.9,1545.2,1206.4,1547.7,1204.5,1548.8z"/><path fill="#feffff" d="M1204.5,1567.9l-151.5,89.7c-1.9,1.1-3.4,0.5-3.4-1.4l0,0c0-1.9,1.5-4.3,3.4-5.4l151.5-89.7      c1.9-1.1,3.4-0.5,3.4,1.4l0,0C1207.9,1564.3,1206.4,1566.8,1204.5,1567.9z"/><path fill="#feffff" d="M1204.5,1587l-151.5,89.7c-1.9,1.1-3.4,0.5-3.4-1.4l0,0c0-1.9,1.5-4.3,3.4-5.4l151.5-89.7      c1.9-1.1,3.4-0.5,3.4,1.4l0,0C1207.9,1583.5,1206.4,1585.9,1204.5,1587z"/><path fill="#feffff" d="M1174.3,1624l-121.3,71.8c-1.9,1.1-3.4,0.5-3.4-1.4l0,0c0-1.9,1.5-4.3,3.4-5.4l121.3-71.8      c1.9-1.1,3.4-0.5,3.4,1.4l0,0C1177.8,1620.4,1176.2,1622.9,1174.3,1624z"/><path fill="#57db90" d="M1144.4,1690.1l-91.3,54.1c-1.9,1.1-3.4,0.5-3.4-1.4l0,0c0-1.9,1.5-4.3,3.4-5.4l91.3-54.1      c1.9-1.1,3.4-0.5,3.4,1.4l0,0C1147.8,1686.6,1146.2,1689,1144.4,1690.1z"/><path fill="#feffff" d="M1204.5,1673.7l-151.5,89.7c-1.9,1.1-3.4,0.5-3.4-1.4l0,0c0-1.9,1.5-4.3,3.4-5.4l151.5-89.7      c1.9-1.1,3.4-0.5,3.4,1.4l0,0C1207.9,1670.1,1206.4,1672.5,1204.5,1673.7z"/><path fill="#feffff" d="M1204.5,1692.8l-151.5,89.7c-1.9,1.1-3.4,0.5-3.4-1.4v0c0-1.9,1.5-4.3,3.4-5.4l151.5-89.7      c1.9-1.1,3.4-0.5,3.4,1.4l0,0C1207.9,1689.2,1206.4,1691.7,1204.5,1692.8z"/><path fill="#feffff" d="M1204.5,1711.9l-151.5,89.7c-1.9,1.1-3.4,0.5-3.4-1.4l0,0c0-1.9,1.5-4.3,3.4-5.4l151.5-89.7      c1.9-1.1,3.4-0.5,3.4,1.4l0,0C1207.9,1708.3,1206.4,1710.8,1204.5,1711.9z"/><path fill="#feffff" d="M1174.3,1748.9l-121.3,71.8c-1.9,1.1-3.4,0.5-3.4-1.4l0,0c0-1.9,1.5-4.3,3.4-5.4l121.3-71.8      c1.9-1.1,3.4-0.5,3.4,1.4l0,0C1177.8,1745.3,1176.2,1747.8,1174.3,1748.9z"/><g><linearGradient id="z" x1="1144.512" x2="1115.163" y1="1487.991" y2="1340.473" gradientUnits="userSpaceOnUse"><stop offset="0" stop-color="#303030"/><stop offset="1" stop-color="#727272"/></linearGradient><path fill="url(#z)" d="M1212.4,1373.8c0,20.6-6.2,43-16.6,64.1c-14.9,30.1-38.5,57.4-65,72.1c-29.1,16.2-54.7,13.4-69.1-4.1      c-7.9-9.6-12.5-23.6-12.5-41.3c0-50.1,36.5-111.1,81.6-136.2C1175.9,1303.3,1212.4,1323.6,1212.4,1373.8z"/><linearGradient id="A" x1="-5084.448" x2="-5070.273" y1="1398.012" y2="1422.023" gradientTransform="matrix(.9593 -.8163 .2825 .802 5601.035 -3838.755)" gradientUnits="userSpaceOnUse"><stop offset="0" stop-color="#e08282"/><stop offset="1" stop-color="#ffc0c0"/></linearGradient><path fill="url(#A)" d="M1113.1,1437.2l-3.8,17.3c0,0,7.8,5.9,19.9-1.2c12.1-7.1,22.9-21.5,22.9-21.5l-7.3-14.3L1113.1,1437.2z"/><linearGradient id="B" x1="-5079.218" x2="-5053.468" y1="1347.323" y2="1390.94" gradientTransform="matrix(.9593 -.8163 .2825 .802 5601.035 -3838.755)" gradientUnits="userSpaceOnUse"><stop offset="0" stop-color="#e08282"/><stop offset="1" stop-color="#ffc0c0"/></linearGradient><path fill="url(#B)" d="M1100.4,1403.1c-7.4,6.6-4.1,14.7-2,16.4c2.1,1.7,8.3,3.8,8.3,3.8s0.4,9.7,4.1,13.4        c3.8,3.6,12.1,8.3,15.4,7.1c3.3-1.2,23.5-23.5,25.9-28.4c2.4-4.9,5.1-27.8,5.1-27.8s6.4-5.7,7.2-14.9c0.8-9.2,0.9-11-1.6-10.2        c-2.6,0.8-8.4-8.2-8.4-8.2l-33.8,19.1l-9,2.4l-4.3,27.9L1100.4,1403.1z"/><linearGradient id="C" x1="-4771.949" x2="-4747.043" y1="1338.644" y2="1380.831" gradientTransform="matrix(.9779 -.7534 .2092 .8615 5497.322 -3384.438)" gradientUnits="userSpaceOnUse"><stop offset="0" stop-color="#303030"/><stop offset="1" stop-color="#727272"/></linearGradient><path fill="url(#C)" d="M1117.3,1382.1c-7.4,8-7.9,23.4-7.9,23.4l-2.2,13.7l-4.9-16c0,0-3.3-15.5-1.8-23        c1.4-7.5,7.2-13.1,7.2-13.1s0.1-10.2,10.8-19c10.7-8.7,28.1-16.5,37.6-16.5c9.5,0,9.1,13.8,9,21.1c-0.1,7.3-0.7,8.3-0.7,8.3        s-8,4.7-8.4,11.6c-0.4,6.9,0.2,12.7-1,13.6c-1.2,0.9-1-6.2-1-6.2S1124.7,1374.1,1117.3,1382.1z"/><linearGradient id="D" x1="-3313.796" x2="-3179.645" y1="2541.305" y2="2541.305" gradientTransform="matrix(1 -.5565 0 1 4375.481 -2871.666)" gradientUnits="userSpaceOnUse"><stop offset="0" stop-color="#efefef"/><stop offset="1" stop-color="#fcfcfc"/></linearGradient><path fill="url(#D)" d="M1195.8,1437.8c-14.9,30.1-38.5,57.4-65,72.1c-29.1,16.2-54.7,13.4-69.1-4.1l48.1-53.5       c0,0,11.5,4.9,21.6-1.9c10.1-6.8,15.4-18.2,19.9-21C1154.8,1427.2,1183,1434.4,1195.8,1437.8z"/><linearGradient id="E" x1="-5103.938" x2="-5085.151" y1="1415.658" y2="1415.658" gradientTransform="matrix(.9593 -.8163 .2825 .802 5601.035 -3838.755)" gradientUnits="userSpaceOnUse"><stop offset="0" stop-color="#ffe94d"/><stop offset="1" stop-color="#ff9d00"/></linearGradient><polygon fill="url(#E)" points="1109.4 1445.9 1123.6 1449.9 1113.7 1468.5 1102.2 1455.8"/><linearGradient id="F" x1="-5075.532" x2="-5053.182" y1="1424.462" y2="1424.462" gradientTransform="matrix(.9593 -.8163 .2825 .802 5601.035 -3838.755)" gradientUnits="userSpaceOnUse"><stop offset="0" stop-color="#ffe94d"/><stop offset="1" stop-color="#ff9d00"/></linearGradient><polygon fill="url(#F)" points="1133.3 1443.3 1138.6 1453.8 1156 1428.8 1148.4 1424.6"/></g></g><g><linearGradient id="G" x1="-6030.195" x2="-6205.671" y1="627.229" y2="359.837" gradientTransform="matrix(-1 0 0 1 -4256.451 0)" gradientUnits="userSpaceOnUse"><stop offset="0" stop-color="#3abaf9"/><stop offset="1" stop-color="#267ebd"/></linearGradient><path fill="url(#G)" d="M1700.5,448.4L1982,287c11-6.3,43.8,0.8,43.8,13.5l-19,241.6c0,8.6-4.6,16.5-12,20.8L1834.1,655l22,142.6    l-22-8.6l-73.7-91.7l-37.2,39.4c-9.2,5.3-36.3-10.4-36.3-21l0-243.6C1686.8,462.3,1692,453.2,1700.5,448.4z"/><linearGradient id="H" x1="-6119.561" x2="-6133.045" y1="423.958" y2="643.372" gradientTransform="matrix(-1 0 0 1 -4256.451 0)" gradientUnits="userSpaceOnUse"><stop offset="0" stop-color="#3abaf9"/><stop offset="1" stop-color="#267ebd"/></linearGradient><path fill="url(#H)" d="M1722.5,457.1L2004,295.6c11-6.3,24.8,1.6,24.8,14.4l0,240.7c0,8.6-4.6,16.5-12,20.8l-160.7,92.2l0,134    l-73.7-91.7l-52.9,30.3c-9.2,5.3-20.7-1.4-20.7-12l0-243.6C1708.9,470.9,1714,461.9,1722.5,457.1z"/><g opacity=".58"><path fill="#fff" d="M1769.7,550.3L1968,435.8c2.2-1.2,3.9-4,3.9-6.2v-0.8c0-2.2-1.8-2.9-3.9-1.7l-198.3,114.5      c-2.2,1.2-3.9,4-3.9,6.2v0.8C1765.7,550.8,1767.5,551.6,1769.7,550.3z"/><path fill="#fff" d="M1769.7,522.7L1968,408.2c2.2-1.2,3.9-4,3.9-6.2v-0.8c0-2.2-1.8-2.9-3.9-1.7L1769.7,514      c-2.2,1.2-3.9,4-3.9,6.2v0.8C1765.7,523.2,1767.5,524,1769.7,522.7z"/><path fill="#fff" d="M1769.7,495.1L1968,380.6c2.2-1.2,3.9-4,3.9-6.2v-0.8c0-2.2-1.8-2.9-3.9-1.7l-198.3,114.5      c-2.2,1.2-3.9,4-3.9,6.2v0.8C1765.7,495.6,1767.5,496.3,1769.7,495.1z"/></g><g opacity=".58"><path fill="#fff" d="M1769.7,646.2L1968,531.7c2.2-1.2,3.9-4,3.9-6.2v-0.8c0-2.2-1.8-2.9-3.9-1.7l-198.3,114.5      c-2.2,1.2-3.9,4-3.9,6.2v0.8C1765.7,646.7,1767.5,647.4,1769.7,646.2z"/><path fill="#fff" d="M1769.7,618.6L1968,504.1c2.2-1.2,3.9-4,3.9-6.2v-0.8c0-2.2-1.8-2.9-3.9-1.7l-198.3,114.5      c-2.2,1.2-3.9,4-3.9,6.2v0.8C1765.7,619.1,1767.5,619.8,1769.7,618.6z"/><path fill="#fff" d="M1769.7,590.9L1968,476.5c2.2-1.2,3.9-4,3.9-6.2v-0.8c0-2.2-1.8-2.9-3.9-1.7l-198.3,114.5      c-2.2,1.2-3.9,4-3.9,6.2v0.8C1765.7,591.4,1767.5,592.2,1769.7,590.9z"/></g><linearGradient id="I" x1="-6074.83" x2="-6077.417" y1="728.287" y2="770.389" gradientTransform="matrix(-1 0 0 1 -4256.451 0)" gradientUnits="userSpaceOnUse"><stop offset="0" stop-color="#3abaf9"/><stop offset="1" stop-color="#fff"/></linearGradient><polygon fill="url(#I)" points="1784 707.1 1856.1 796.8 1856.1 797.6 1783.6 707.3"/><linearGradient id="J" x1="-6115.982" x2="-6127.557" y1="406.99" y2="595.339" gradientTransform="matrix(-1 0 0 1 -4256.451 0)" gradientUnits="userSpaceOnUse"><stop offset="0" stop-color="#3abaf9"/><stop offset="1" stop-color="#fff"/></linearGradient><path fill="url(#J)" d="M1722.5,457.1L2004,295.6c6.5-3.7,14-2.5,19,1.8c-4.9-3.2-11.5-3.9-17.4-0.6l-281.5,161.5     c-8.4,4.8-13.6,13.8-13.6,23.5l0,243.6c0,4.5,2.2,8.3,5.3,10.8c-4-2.3-6.9-6.7-6.9-12l0-243.6     C1708.9,470.9,1714,461.9,1722.5,457.1z"/></g><linearGradient id="K" x1="1607.335" x2="1681.144" y1="1309.337" y2="1309.337" gradientUnits="userSpaceOnUse"><stop offset="0" stop-color="#e08282"/><stop offset="1" stop-color="#ffc0c0"/></linearGradient><path fill="url(#K)" d="M1677.1,1364.1c0,0,6.3-32.8,3.1-48.8c-3.2-16-6.1-26.7-6.1-26.7s-9,2-8.4,12.6c0.6,10.7-6.5,12.6-7.9,9.6   s18.6-49.5,11.6-54.8s-9.7,4.1-16.7,24.2c-7,20.1-12.4,26.2-16.3,29.1c-3.9,2.9-26.7,9.4-29,19.2s14.2,26.7,14.2,26.7   S1651.4,1328.8,1677.1,1364.1z"/><linearGradient id="L" x1="1825.94" x2="1959.965" y1="1383.834" y2="1383.834" gradientUnits="userSpaceOnUse"><stop offset="0" stop-color="#3abaf9"/><stop offset="1" stop-color="#267ebd"/></linearGradient><path fill="url(#L)" d="M1869.2,1505.2c0,0-1.4-137-2.2-141.1c-0.7-4.1-41.1-95.2-41.1-95.2s2.9-16.2,21.3-21.3   c18.4-5.1,25,3.7,25,3.7s42.6,94,54.4,116c11.8,22,33.4,154.2,33.4,154.2L1869.2,1505.2z"/><linearGradient id="M" x1="1789.596" x2="1868.093" y1="1199.69" y2="1199.69" gradientUnits="userSpaceOnUse"><stop offset="0" stop-color="#e08282"/><stop offset="1" stop-color="#ffc0c0"/></linearGradient><path fill="url(#M)" d="M1825.9,1264.2c0,0-24.9-34.1-25.9-40c-1-5.9-6.1-32.8-6.1-32.8s6.7-8.1,11.2,5.1s8.3,16.1,8.3,16.1   l-3.6-36.6c0,0-22.7-35.7-20.2-40.3c2.6-4.6,30.2,40.6,38.5,41.3c8.3,0.6,35.3,9.6,37.3,18.6s2.5,52.8,2.5,52.8   S1847,1240.7,1825.9,1264.2z"/><linearGradient id="N" x1="1744.624" x2="1959.965" y1="1672.427" y2="1672.427" gradientUnits="userSpaceOnUse"><stop offset="0" stop-color="#3abaf9"/><stop offset="1" stop-color="#267ebd"/></linearGradient><path fill="url(#N)" d="M1934.3,1484.3c-16.7-8.3-140.8,58.5-158.5,68.9c-17.8,10.4-26.1,37.2-21.8,91.1s-9.3,170.6-9.3,170.6   s23.4,49.6,99,46.3c75.5-3.3,100.2-50.3,100.2-50.3s-17.2-76.7-8.3-135S1986.5,1510.4,1934.3,1484.3z"/><linearGradient id="O" x1="1619.71" x2="1816.73" y1="1496.343" y2="1496.343" gradientUnits="userSpaceOnUse"><stop offset="0" stop-color="#3abaf9"/><stop offset="1" stop-color="#267ebd"/></linearGradient><path fill="url(#O)" d="M1809.6,1585.1c0,0,22.2,34.8-11.9,56.9c-34.1,22.1-73.3-22.2-114-69.2c-40.7-47-59.2-64.5-59.5-85.6   c-0.3-21.2-4.5-128.3-4.5-128.3s6.1-18.2,32.9-13.4c26.8,4.8,27.6,30.6,27.6,30.6s5.6,89.8,12.2,101   C1699,1488.4,1809.6,1585.1,1809.6,1585.1z"/><g><linearGradient id="P" x1="-6816.866" x2="-6705.645" y1="1365.8" y2="1365.8" gradientTransform="matrix(-.908 -.1048 -.1092 .9085 -4145.893 -471.283)" gradientUnits="userSpaceOnUse"><stop offset="0" stop-color="#e08282"/><stop offset="1" stop-color="#ffc0c0"/></linearGradient><path fill="url(#P)" d="M1805.9,1407.9c0,0-9,25.1-7.8,30.6c1.2,5.4,2.9,10.2,2.9,10.2s-6,9.2-6.3,18.2c-0.4,9.1-2.6,36.9,5.6,41.6    c8.1,4.7,21,4.7,22.2,4.8c1.1,0.1-4.7,19.5-4.7,19.5s21.2,16.1,45.8,10.8s25.6-13.6,25.6-13.6l3.9-87.1L1805.9,1407.9z"/><linearGradient id="Q" x1="-6843.776" x2="-6689.705" y1="1310.323" y2="1310.323" gradientTransform="matrix(-.908 -.1048 -.1092 .9085 -4145.893 -471.283)" gradientUnits="userSpaceOnUse"><stop offset="0" stop-color="#303030"/><stop offset="1" stop-color="#727272"/></linearGradient><path fill="url(#Q)" d="M1828.6,1443.1c12.4,0.8-3.7,29.1,10.6,39.1c14.2,10,48.2,17.3,58.3,2.9c10.1-14.4,29.2-41,28-53.6    c-1.1-12.6-13.4-23.9-13.4-23.9s9.9-29.9-20.2-37.2c-30.1-7.3-51.4,2.7-73.1-2.8c-21.7-5.5-33.2,4.9-26.9,22    c6.3,17,24.7,27.5,23.5,37.6c-1.2,10.1-6.4,31.1-1.7,33.2C1818.3,1462.4,1821.1,1442.6,1828.6,1443.1z"/></g><rect width="2918.6" height="2432.2" x="63.2" y="45.3" fill="none"/></svg>